<?xml version="1.0" encoding="utf-8"?><svg xmlns="http://www.w3.org/2000/svg" xmlns:xlink="http://www.w3.org/1999/xlink"><style>:root>svg{display:none}:root>svg:target{display:block}</style><svg fill="none" viewBox="0 0 33 33" id="advantages--1" xmlns="http://www.w3.org/2000/svg"><g clip-path="url(#aaa)"><path d="M25.379 9.35h-1.096l-2.27-6.251A2.682 2.682 0 0 0 19.5 1.336h-2.137A1.34 1.34 0 0 0 16.03 2.67a1.34 1.34 0 0 0 1.335 1.336h2.137l1.95 5.343h-6.424l-.481-1.336h.12a1.34 1.34 0 0 0 1.336-1.335 1.34 1.34 0 0 0-1.336-1.336h-3.98A1.34 1.34 0 0 0 9.35 6.679a1.34 1.34 0 0 0 1.336 1.335h1.002l2.43 6.679h-.894c-.588-2.979-3.086-5.183-6.212-5.33C3.272 9.176 0 12.29 0 16.03s2.939 6.678 6.679 6.678c3.285 0 5.944-2.257 6.545-5.343h5.61c.587 2.979 3.085 5.183 6.21 5.33 3.74.173 7.013-2.925 7.013-6.679 0-3.726-2.938-6.665-6.678-6.665ZM8.014 17.364h2.431c-.56 1.643-2.137 2.779-4.034 2.658-1.99-.12-3.646-1.803-3.74-3.806-.093-2.338 1.697-4.195 4.008-4.195a3.939 3.939 0 0 1 3.766 2.672h-2.43a1.34 1.34 0 0 0-1.336 1.336 1.34 1.34 0 0 0 1.335 1.335Zm10.82-2.671h-1.87l-.975-2.672h4.047a6.324 6.324 0 0 0-1.202 2.672Zm6.384 5.343c-2.057-.08-3.793-1.83-3.847-3.9a3.984 3.984 0 0 1 1.403-3.153l.828 2.27a1.333 1.333 0 0 0 1.71.802 1.332 1.332 0 0 0 .801-1.71l-.841-2.31.013-.014a3.967 3.967 0 0 1 4.1 4.008c0 2.297-1.843 4.087-4.167 4.007Zm-10.525 6.678H9.35l8.014 4.007V28.05h5.343l-8.014-4.007v2.671Z" fill="url(#aab)"/></g><defs><linearGradient id="aab" x1="16.029" y1="1.336" x2="16.029" y2="30.721" gradientUnits="userSpaceOnUse"><stop stop-color="#FB0"/><stop offset="1" stop-color="#F2A60C"/></linearGradient><clipPath id="aaa"><path fill="#fff" d="M0 0h32.057v32.057H0z"/></clipPath></defs></svg><svg fill="none" viewBox="0 0 33 33" id="advantages--2" xmlns="http://www.w3.org/2000/svg"><path d="M22.708 22.694c-1.804 0-2.939.56-3.94 1.068-.869.441-1.577.802-2.739.802-1.202 0-1.87-.334-2.738-.802-1.002-.507-2.097-1.068-3.94-1.068-1.844 0-2.94.56-3.94 1.068-.575.294-1.083.548-1.697.695-.601.133-1.042.614-1.042 1.215v.134c0 .801.748 1.376 1.523 1.215.988-.2 1.736-.574 2.417-.921.868-.44 1.563-.802 2.738-.802 1.176 0 1.87.334 2.739.802 1.001.507 2.097 1.068 3.94 1.068s2.939-.56 3.94-1.068c.869-.44 1.576-.802 2.739-.802 1.202 0 1.87.334 2.738.802.694.347 1.442.734 2.444.935a1.255 1.255 0 0 0 1.496-1.216v-.12c0-.614-.454-1.095-1.055-1.229-.614-.133-1.109-.387-1.683-.694-1.002-.521-2.137-1.082-3.94-1.082Zm0-5.944c-1.804 0-2.939.574-3.94 1.068-.869.428-1.577.802-2.739.802-1.202 0-1.87-.334-2.738-.802-1.002-.507-2.097-1.068-3.94-1.068-1.844 0-2.94.574-3.94 1.068-.575.28-1.083.548-1.71.695-.588.134-1.03.614-1.03 1.215v.134a1.242 1.242 0 0 0 1.497 1.216c1.002-.2 1.75-.588 2.444-.922.868-.468 1.536-.801 2.738-.801 1.203 0 1.87.333 2.739.8 1.001.508 2.097 1.07 3.94 1.07s2.939-.575 3.94-1.07c.869-.467 1.536-.8 2.739-.8 1.202 0 1.87.333 2.738.8.694.348 1.442.736 2.444.936a1.256 1.256 0 0 0 1.496-1.229v-.12c0-.615-.454-1.095-1.055-1.229-.614-.134-1.109-.387-1.683-.695-1.002-.507-2.137-1.068-3.94-1.068Zm3.94-10.793c-1.002-.507-2.11-1.068-3.94-1.068s-2.939.56-3.94 1.068c-.869.428-1.577.802-2.739.802-1.202 0-1.87-.334-2.738-.802-1.002-.494-2.097-1.068-3.94-1.068-1.844 0-2.94.56-3.94 1.068-.575.294-1.083.548-1.697.695-.601.133-1.042.614-1.042 1.215v.094c0 .801.721 1.389 1.496 1.229 1.002-.2 1.75-.588 2.444-.922.868-.44 1.563-.801 2.738-.801 1.176 0 1.87.334 2.739.801 1.001.508 2.097 1.069 3.94 1.069s2.939-.575 3.94-1.069c.869-.427 1.576-.801 2.739-.801 1.202 0 1.87.334 2.738.801.694.347 1.442.735 2.444.935a1.256 1.256 0 0 0 1.496-1.229v-.12c0-.614-.454-1.095-1.055-1.229-.614-.133-1.109-.374-1.683-.668Zm-3.94 4.849c-1.804 0-2.939.574-3.94 1.069-.869.467-1.537.8-2.739.8s-1.87-.333-2.738-.8c-1.002-.508-2.097-1.07-3.94-1.07-1.844 0-2.94.575-3.94 1.07-.575.307-1.07.56-1.684.694-.601.134-1.055.614-1.055 1.229v.12a1.242 1.242 0 0 0 1.496 1.216c1.002-.2 1.75-.588 2.444-.922.868-.427 1.576-.801 2.738-.801s1.87.334 2.739.801c1.001.508 2.097 1.069 3.94 1.069s2.939-.575 3.94-1.069c.869-.427 1.576-.801 2.739-.801 1.202 0 1.87.334 2.738.801.694.347 1.442.735 2.444.935a1.255 1.255 0 0 0 1.496-1.216v-.12c0-.614-.454-1.095-1.055-1.229-.614-.133-1.109-.387-1.683-.694-1.002-.521-2.137-1.082-3.94-1.082Z" fill="url(#aba)"/><defs><linearGradient id="aba" x1="16.029" y1="4.889" x2="16.029" y2="27.168" gradientUnits="userSpaceOnUse"><stop stop-color="#FB0"/><stop offset="1" stop-color="#F2A60C"/></linearGradient></defs></svg><svg fill="none" viewBox="0 0 33 33" id="advantages--3" xmlns="http://www.w3.org/2000/svg"><path d="M8.082 10.752a9.351 9.351 0 0 0-.027 13.197c1.964-4.541 5.463-8.335 9.831-10.592a21.308 21.308 0 0 0-7.2 12.449c3.474 1.643 7.748 1.042 10.62-1.83 3.993-3.994 5.116-14.88 5.356-17.872a.653.653 0 0 0-.708-.708c-2.992.24-13.878 1.363-17.872 5.356Z" fill="url(#aca)"/><defs><linearGradient id="aca" x1="16.004" y1="5.394" x2="16.004" y2="26.707" gradientUnits="userSpaceOnUse"><stop stop-color="#FB0"/><stop offset="1" stop-color="#F2A60C"/></linearGradient></defs></svg><svg fill="none" viewBox="0 0 33 33" id="advantages--4" xmlns="http://www.w3.org/2000/svg"><path d="M16.028 10.686a5.341 5.341 0 0 0-5.343 5.343 5.341 5.341 0 0 0 5.343 5.342 5.341 5.341 0 0 0 5.343-5.342 5.341 5.341 0 0 0-5.343-5.343Zm11.942 4.007A12.014 12.014 0 0 0 17.364 4.087V2.671a1.34 1.34 0 0 0-1.336-1.335 1.34 1.34 0 0 0-1.335 1.335v1.416A12.013 12.013 0 0 0 4.087 14.693H2.671a1.34 1.34 0 0 0-1.336 1.336 1.34 1.34 0 0 0 1.336 1.335h1.416A12.013 12.013 0 0 0 14.693 27.97v1.416a1.34 1.34 0 0 0 1.335 1.335 1.34 1.34 0 0 0 1.336-1.335V27.97A12.013 12.013 0 0 0 27.97 17.364h1.415a1.34 1.34 0 0 0 1.336-1.335 1.34 1.34 0 0 0-1.336-1.336H27.97ZM16.028 25.378c-5.169 0-9.35-4.18-9.35-9.35 0-5.169 4.181-9.35 9.35-9.35 5.17 0 9.35 4.181 9.35 9.35 0 5.17-4.18 9.35-9.35 9.35Z" fill="url(#ada)"/><defs><linearGradient id="ada" x1="16.028" y1="1.336" x2="16.028" y2="30.721" gradientUnits="userSpaceOnUse"><stop stop-color="#FB0"/><stop offset="1" stop-color="#F2A60C"/></linearGradient></defs></svg><svg fill="none" viewBox="0 0 24 24" id="advantages--5" xmlns="http://www.w3.org/2000/svg"><path d="M18 8h-1V6c0-2.76-2.24-5-5-5S7 3.24 7 6v2H6c-1.1 0-2 .9-2 2v10c0 1.1.9 2 2 2h12c1.1 0 2-.9 2-2V10c0-1.1-.9-2-2-2Zm-6 9c-1.1 0-2-.9-2-2s.9-2 2-2 2 .9 2 2-.9 2-2 2ZM9 8V6c0-1.66 1.34-3 3-3s3 1.34 3 3v2H9Z" fill="url(#aea)"/><defs><linearGradient id="aea" x1="12" y1="1" x2="12" y2="22" gradientUnits="userSpaceOnUse"><stop stop-color="#FB0"/><stop offset="1" stop-color="#F2A60C"/></linearGradient></defs></svg><svg fill="none" viewBox="0 0 33 33" id="advantages--6" xmlns="http://www.w3.org/2000/svg"><path d="M25.994 13.357a1.335 1.335 0 0 0-.094 1.336c.332.773.565 1.585.695 2.417.344 2.151.022 4.356-.922 6.318a1.335 1.335 0 0 1-1.189.708H7.588a1.335 1.335 0 0 1-1.19-.72A10.686 10.686 0 0 1 17.366 8.093c.97.114 1.92.366 2.818.748a1.336 1.336 0 0 0 1.336-.093 1.336 1.336 0 0 0-.227-2.35 13.357 13.357 0 0 0-16.817 18.98 2.672 2.672 0 0 0 2.298 1.335h18.5a2.672 2.672 0 0 0 2.324-1.335 13.358 13.358 0 0 0 .734-11.875 1.336 1.336 0 0 0-2.337-.147Z" fill="url(#afa)"/><path d="M14.145 16.817a2.673 2.673 0 1 0 3.78 3.78l7.56-11.34-11.34 7.56Z" fill="url(#afb)"/><defs><linearGradient id="afa" x1="16.028" y1="5.317" x2="16.028" y2="26.714" gradientUnits="userSpaceOnUse"><stop stop-color="#FB0"/><stop offset="1" stop-color="#F2A60C"/></linearGradient><linearGradient id="afb" x1="19.424" y1="9.256" x2="19.424" y2="21.38" gradientUnits="userSpaceOnUse"><stop stop-color="#FB0"/><stop offset="1" stop-color="#F2A60C"/></linearGradient></defs></svg><svg fill="none" viewBox="0 0 24 24" id="bicycles--1" xmlns="http://www.w3.org/2000/svg"><path d="M19 7h-.82l-1.7-4.68A2.008 2.008 0 0 0 14.6 1H13c-.55 0-1 .45-1 1s.45 1 1 1h1.6l1.46 4h-4.81l-.36-1h.09c.55 0 1-.45 1-1s-.45-1-1-1H8c-.55 0-1 .45-1 1s.45 1 1 1h.75l1.82 5H9.9c-.44-2.23-2.31-3.88-4.65-3.99C2.45 6.87 0 9.2 0 12c0 2.8 2.2 5 5 5 2.46 0 4.45-1.69 4.9-4h4.2c.44 2.23 2.31 3.88 4.65 3.99 2.8.13 5.25-2.19 5.25-5C24 9.2 21.8 7 19 7ZM6 13h1.82c-.42 1.23-1.6 2.08-3.02 1.99-1.49-.09-2.73-1.35-2.8-2.85C1.93 10.39 3.27 9 5 9c1.33 0 2.42.83 2.82 2H6c-.55 0-1 .45-1 1s.45 1 1 1Zm8.1-2h-1.4l-.73-2H15c-.44.58-.76 1.25-.9 2Zm4.78 4c-1.54-.06-2.84-1.37-2.88-2.92-.02-.96.39-1.8 1.05-2.36l.62 1.7c.19.52.76.79 1.28.6.52-.19.79-.76.6-1.28l-.63-1.73.01-.01A2.969 2.969 0 0 1 22 12c0 1.72-1.38 3.06-3.12 3ZM11 20H7l6 3v-2h4l-6-3v2Z" fill="url(#aia)"/><defs><linearGradient id="aia" x1="12" y1="1" x2="12" y2="23" gradientUnits="userSpaceOnUse"><stop stop-color="#FB0"/><stop offset="1" stop-color="#F2A60C"/></linearGradient></defs></svg><svg fill="none" viewBox="0 0 24 24" id="bicycles--2" xmlns="http://www.w3.org/2000/svg"><path d="M17 16.99c-1.35 0-2.2.42-2.95.8-.65.33-1.18.6-2.05.6-.9 0-1.4-.25-2.05-.6-.75-.38-1.57-.8-2.95-.8-1.38 0-2.2.42-2.95.8-.43.22-.81.41-1.27.52-.45.1-.78.46-.78.91v.1c0 .6.56 1.03 1.14.91.74-.15 1.3-.43 1.81-.69.65-.33 1.17-.6 2.05-.6.88 0 1.4.25 2.05.6.75.38 1.57.8 2.95.8 1.38 0 2.2-.42 2.95-.8.65-.33 1.18-.6 2.05-.6.9 0 1.4.25 2.05.6.52.26 1.08.55 1.83.7a.939.939 0 0 0 1.12-.91v-.09c0-.46-.34-.82-.79-.92-.46-.1-.83-.29-1.26-.52-.75-.39-1.6-.81-2.95-.81Zm0-4.45c-1.35 0-2.2.43-2.95.8-.65.32-1.18.6-2.05.6-.9 0-1.4-.25-2.05-.6-.75-.38-1.57-.8-2.95-.8-1.38 0-2.2.43-2.95.8-.43.21-.81.41-1.28.52-.44.1-.77.46-.77.91v.1a.93.93 0 0 0 1.12.91c.75-.15 1.31-.44 1.83-.69.65-.35 1.15-.6 2.05-.6.9 0 1.4.25 2.05.6.75.38 1.57.8 2.95.8 1.38 0 2.2-.43 2.95-.8.65-.35 1.15-.6 2.05-.6.9 0 1.4.25 2.05.6.52.26 1.08.55 1.83.7a.94.94 0 0 0 1.12-.92v-.09c0-.46-.34-.82-.79-.92-.46-.1-.83-.29-1.26-.52-.75-.38-1.6-.8-2.95-.8Zm2.95-8.08c-.75-.38-1.58-.8-2.95-.8s-2.2.42-2.95.8c-.65.32-1.18.6-2.05.6-.9 0-1.4-.25-2.05-.6-.75-.37-1.57-.8-2.95-.8-1.38 0-2.2.42-2.95.8-.43.22-.81.41-1.27.52-.45.1-.78.46-.78.91v.07c0 .6.54 1.04 1.12.92.75-.15 1.31-.44 1.83-.69.65-.33 1.17-.6 2.05-.6.88 0 1.4.25 2.05.6.75.38 1.57.8 2.95.8 1.38 0 2.2-.43 2.95-.8.65-.32 1.18-.6 2.05-.6.9 0 1.4.25 2.05.6.52.26 1.08.55 1.83.7A.94.94 0 0 0 22 5.97v-.09c0-.46-.34-.82-.79-.92-.46-.1-.83-.28-1.26-.5ZM17 8.09c-1.35 0-2.2.43-2.95.8-.65.35-1.15.6-2.05.6-.9 0-1.4-.25-2.05-.6-.75-.38-1.57-.8-2.95-.8-1.38 0-2.2.43-2.95.8-.43.23-.8.42-1.26.52-.45.1-.79.46-.79.92v.09a.93.93 0 0 0 1.12.91c.75-.15 1.31-.44 1.83-.69.65-.32 1.18-.6 2.05-.6.87 0 1.4.25 2.05.6.75.38 1.57.8 2.95.8 1.38 0 2.2-.43 2.95-.8.65-.32 1.18-.6 2.05-.6.9 0 1.4.25 2.05.6.52.26 1.08.55 1.83.7a.94.94 0 0 0 1.12-.91v-.09c0-.46-.34-.82-.79-.92-.46-.1-.83-.29-1.26-.52-.75-.39-1.6-.81-2.95-.81Z" fill="url(#aja)"/><defs><linearGradient id="aja" x1="12" y1="3.66" x2="12" y2="20.34" gradientUnits="userSpaceOnUse"><stop stop-color="#FB0"/><stop offset="1" stop-color="#F2A60C"/></linearGradient></defs></svg><svg fill="none" viewBox="0 0 24 24" id="bicycles--3" xmlns="http://www.w3.org/2000/svg"><path d="M19.46 10a1 1 0 0 0-.07 1c.248.579.423 1.187.52 1.81a8 8 0 0 1-.69 4.73 1 1 0 0 1-.89.53H5.68a1 1 0 0 1-.89-.54A8 8 0 0 1 13 6.06a7.69 7.69 0 0 1 2.11.56 1 1 0 0 0 1-.07 1 1 0 0 0-.17-1.76A10 10 0 0 0 3.35 19a2 2 0 0 0 1.72 1h13.85a2 2 0 0 0 1.74-1 10 10 0 0 0 .55-8.89 1 1 0 0 0-1.75-.11Z" fill="url(#aka)"/><path d="M10.59 12.59a2.001 2.001 0 0 0 2.83 2.83l5.66-8.49-8.49 5.66Z" fill="url(#akb)"/><defs><linearGradient id="aka" x1="11.999" y1="3.981" x2="11.999" y2="20" gradientUnits="userSpaceOnUse"><stop stop-color="#FB0"/><stop offset="1" stop-color="#F2A60C"/></linearGradient><linearGradient id="akb" x1="14.542" y1="6.93" x2="14.542" y2="16.006" gradientUnits="userSpaceOnUse"><stop stop-color="#FB0"/><stop offset="1" stop-color="#F2A60C"/></linearGradient></defs></svg><svg fill="none" viewBox="0 0 24 24" id="bicycles--4" xmlns="http://www.w3.org/2000/svg"><path d="M12 8c-2.21 0-4 1.79-4 4s1.79 4 4 4 4-1.79 4-4-1.79-4-4-4Zm8.94 3A8.994 8.994 0 0 0 13 3.06V2c0-.55-.45-1-1-1s-1 .45-1 1v1.06A8.994 8.994 0 0 0 3.06 11H2c-.55 0-1 .45-1 1s.45 1 1 1h1.06A8.994 8.994 0 0 0 11 20.94V22c0 .55.45 1 1 1s1-.45 1-1v-1.06A8.993 8.993 0 0 0 20.94 13H22c.55 0 1-.45 1-1s-.45-1-1-1h-1.06ZM12 19c-3.87 0-7-3.13-7-7s3.13-7 7-7 7 3.13 7 7-3.13 7-7 7Z" fill="url(#ala)"/><defs><linearGradient id="ala" x1="12" y1="1" x2="12" y2="23" gradientUnits="userSpaceOnUse"><stop stop-color="#FB0"/><stop offset="1" stop-color="#F2A60C"/></linearGradient></defs></svg><svg fill="none" viewBox="0 0 22 12" id="bicycles--arrow" xmlns="http://www.w3.org/2000/svg"><path d="M1 6h19.5m0 0L16 1m4.5 5L16 11" stroke="#320" stroke-width="2" stroke-linecap="round" stroke-linejoin="round"/></svg><svg fill="none" viewBox="0 0 16 16" id="bicycles-items--1" xmlns="http://www.w3.org/2000/svg"><path d="M12.667 4.667c0-.733-.6-1.333-1.333-1.333h-1.333c-.367 0-.667.3-.667.666 0 .367.3.667.667.667h1.333v1.767l-2.32 2.9H6.667V6.667c0-.367-.3-.667-.666-.667H4a2.666 2.666 0 0 0-2.667 2.667V10c0 .367.3.667.667.667h.666c0 1.107.894 2 2 2 1.107 0 2-.893 2-2h2.347c.407 0 .787-.187 1.04-.5l2.32-2.9c.193-.24.293-.534.293-.833V4.667h.001Zm-8 6.667a.67.67 0 0 1-.666-.667h1.333c0 .367-.3.667-.667.667Z" fill="#B3B3B3"/><path d="M12.666 11.833h.002c.643 0 1.167-.524 1.167-1.167S13.311 9.5 12.668 9.5s-1.167.523-1.167 1.166v.002a1.169 1.169 0 0 0 1.165 1.165ZM4 4.5h2c.09 0 .167.076.167.167 0 .09-.076.166-.166.166h-2a.169.169 0 0 1-.168-.167c0-.09.077-.166.167-.166Zm7.168 6.166c0-.83.67-1.5 1.5-1.5s1.5.67 1.5 1.5-.67 1.5-1.5 1.5-1.5-.67-1.5-1.5Z" fill="#fff" stroke="#CCC"/></svg><svg fill="none" viewBox="0 0 16 16" id="bicycles-items--2" xmlns="http://www.w3.org/2000/svg"><g clip-path="url(#aha)"><path d="M1.333 4c.366 0 .666-.3.666-.666v-.667A.67.67 0 0 1 2.666 2h.667c.366 0 .666-.3.666-.666 0-.367-.3-.667-.666-.667h-.667c-1.107 0-2 .893-2 2v.667c0 .366.3.666.667.666Zm2 10h-.667a.669.669 0 0 1-.667-.666v-.667a.668.668 0 0 0-1.333 0v.667c0 1.107.893 2 2 2h.667a.668.668 0 0 0 0-1.333V14Zm10-13.333h-.666c-.367 0-.667.3-.667.667 0 .366.3.666.667.666h.666c.367 0 .667.3.667.667v.667c0 .366.3.666.667.666.366 0 .666-.3.666-.666v-.667c0-1.107-.893-2-2-2ZM14.667 12c-.367 0-.667.3-.667.667v.667c0 .367-.3.667-.667.667h-.666c-.367 0-.667.3-.667.666 0 .367.3.667.667.667h.666c1.107 0 2-.893 2-2v-.667c0-.367-.3-.666-.666-.666V12Zm-2.002-2.086V6.087c0-.48-.253-.92-.666-1.153l-3.334-1.92a1.317 1.317 0 0 0-1.333 0L3.999 4.926c-.414.24-.667.68-.667 1.16v3.827c0 .48.253.92.667 1.153l3.333 1.92a1.317 1.317 0 0 0 1.333 0L12 11.067a1.32 1.32 0 0 0 .666-1.153h-.001Zm-5.333 1.533L4.665 9.914V6.827L7.332 8.38v3.067Zm.667-4.22-2.64-1.54 2.64-1.52 2.64 1.52-2.64 1.54Zm3.333 2.687-2.667 1.533V8.38l2.667-1.553v3.087Z" fill="#B3B3B3"/></g><defs><clipPath id="aha"><path fill="#fff" d="M0 0h16v16H0z"/></clipPath></defs></svg><svg viewBox="0 0 24 24" fill="none" preserveAspectRatio="xMinYMin meet" id="choice--1" xmlns="http://www.w3.org/2000/svg"><path d="M19 7h-.82l-1.7-4.68A2.008 2.008 0 0 0 14.6 1H13c-.55 0-1 .45-1 1s.45 1 1 1h1.6l1.46 4h-4.81l-.36-1h.09c.55 0 1-.45 1-1s-.45-1-1-1H8c-.55 0-1 .45-1 1s.45 1 1 1h.75l1.82 5H9.9c-.44-2.23-2.31-3.88-4.65-3.99C2.45 6.87 0 9.2 0 12c0 2.8 2.2 5 5 5 2.46 0 4.45-1.69 4.9-4h4.2c.44 2.23 2.31 3.88 4.65 3.99 2.8.13 5.25-2.19 5.25-5C24 9.2 21.8 7 19 7ZM6 13h1.82c-.42 1.23-1.6 2.08-3.02 1.99-1.49-.09-2.73-1.35-2.8-2.85C1.93 10.39 3.27 9 5 9c1.33 0 2.42.83 2.82 2H6c-.55 0-1 .45-1 1s.45 1 1 1Zm8.1-2h-1.4l-.73-2H15c-.44.58-.76 1.25-.9 2Zm4.78 4c-1.54-.06-2.84-1.37-2.88-2.92-.02-.96.39-1.8 1.05-2.36l.62 1.7c.19.52.76.79 1.28.6.52-.19.79-.76.6-1.28l-.63-1.73.01-.01A2.969 2.969 0 0 1 22 12c0 1.72-1.38 3.06-3.12 3ZM11 20H7l6 3v-2h4l-6-3v2Z" fill="url(#ana)"/><defs><linearGradient id="ana" x1="12" y1="1" x2="12" y2="23" gradientUnits="userSpaceOnUse"><stop stop-color="#FB0"/><stop offset="1" stop-color="#F2A60C"/></linearGradient></defs></svg><svg viewBox="0 0 24 24" fill="none" preserveAspectRatio="xMinYMin meet" id="choice--2" xmlns="http://www.w3.org/2000/svg"><path d="M12 8c-2.21 0-4 1.79-4 4s1.79 4 4 4 4-1.79 4-4-1.79-4-4-4Zm8.94 3A8.994 8.994 0 0 0 13 3.06V2c0-.55-.45-1-1-1s-1 .45-1 1v1.06A8.994 8.994 0 0 0 3.06 11H2c-.55 0-1 .45-1 1s.45 1 1 1h1.06A8.994 8.994 0 0 0 11 20.94V22c0 .55.45 1 1 1s1-.45 1-1v-1.06A8.993 8.993 0 0 0 20.94 13H22c.55 0 1-.45 1-1s-.45-1-1-1h-1.06ZM12 19c-3.87 0-7-3.13-7-7s3.13-7 7-7 7 3.13 7 7-3.13 7-7 7Z" fill="url(#aoa)"/><defs><linearGradient id="aoa" x1="12" y1="1" x2="12" y2="23" gradientUnits="userSpaceOnUse"><stop stop-color="#FB0"/><stop offset="1" stop-color="#F2A60C"/></linearGradient></defs></svg><svg fill="none" viewBox="0 0 20 20" id="contact--1" xmlns="http://www.w3.org/2000/svg"><path d="M10 1.667c-3.5 0-6.667 2.683-6.667 6.833 0 2.65 2.042 5.767 6.117 9.358a.848.848 0 0 0 1.108 0c4.067-3.591 6.109-6.708 6.109-9.358 0-4.15-3.167-6.833-6.667-6.833ZM10 10c-.917 0-1.667-.75-1.667-1.667S9.083 6.666 10 6.666s1.667.75 1.667 1.667S10.917 10 10 10Z" fill="url(#apa)"/><defs><linearGradient id="apa" x1="10" y1="1.667" x2="10" y2="18.064" gradientUnits="userSpaceOnUse"><stop stop-color="#FB0"/><stop offset="1" stop-color="#F2A60C"/></linearGradient></defs></svg><svg fill="none" viewBox="0 0 20 20" id="contact--2" xmlns="http://www.w3.org/2000/svg"><path d="M16.667 3.333H3.333c-.916 0-1.658.75-1.658 1.667l-.008 10c0 .917.75 1.667 1.666 1.667h13.334c.916 0 1.666-.75 1.666-1.667V5c0-.917-.75-1.667-1.666-1.667Zm-.334 3.542-5.891 3.684a.843.843 0 0 1-.884 0L3.667 6.875a.708.708 0 1 1 .75-1.2L10 9.167l5.583-3.492a.708.708 0 1 1 .75 1.2Z" fill="url(#aqa)"/><defs><linearGradient id="aqa" x1="10" y1="3.333" x2="10" y2="16.667" gradientUnits="userSpaceOnUse"><stop stop-color="#FB0"/><stop offset="1" stop-color="#F2A60C"/></linearGradient></defs></svg><svg fill="none" viewBox="0 0 20 20" id="contact--3" xmlns="http://www.w3.org/2000/svg"><path d="m16.024 12.717-2.117-.242a1.657 1.657 0 0 0-1.366.475l-1.534 1.533a12.538 12.538 0 0 1-5.49-5.491l1.54-1.542c.36-.358.535-.858.476-1.367l-.241-2.1a1.668 1.668 0 0 0-1.66-1.475h-1.44c-.942 0-1.725.784-1.667 1.725.442 7.117 6.133 12.8 13.242 13.242.94.058 1.724-.725 1.724-1.667v-1.441a1.652 1.652 0 0 0-1.466-1.65Z" fill="url(#ara)"/><defs><linearGradient id="ara" x1="10.007" y1="2.508" x2="10.007" y2="17.478" gradientUnits="userSpaceOnUse"><stop stop-color="#FB0"/><stop offset="1" stop-color="#F2A60C"/></linearGradient></defs></svg><svg fill="none" viewBox="0 0 32 32" id="contact--facebook" xmlns="http://www.w3.org/2000/svg"><g clip-path="url(#asa)"><path d="M32 16.098c0-8.836-7.164-16-16-16s-16 7.164-16 16c0 7.986 5.85 14.605 13.5 15.805v-11.18H9.437v-4.627H13.5v-3.522c0-4.01 2.39-6.226 6.044-6.226 1.75 0 3.581.314 3.581.314v3.937h-2.018c-1.988 0-2.608 1.233-2.608 2.499v3h4.437l-.71 4.626H18.5v11.18C26.149 30.703 32 24.083 32 16.098Z" fill="url(#asb)"/></g><defs><linearGradient id="asb" x1="16" y1=".098" x2="16" y2="31.904" gradientUnits="userSpaceOnUse"><stop stop-color="#FB0"/><stop offset="1" stop-color="#F2A60C"/></linearGradient><clipPath id="asa"><path fill="#fff" d="M0 0h32v32H0z"/></clipPath></defs></svg><svg fill="none" viewBox="0 0 32 32" id="contact--instagram" xmlns="http://www.w3.org/2000/svg"><g clip-path="url(#ata)"><path d="M16 0c-4.347 0-4.89.02-6.596.096C7.7.176 6.54.444 5.52.84a7.835 7.835 0 0 0-2.835 1.845A7.807 7.807 0 0 0 .84 5.52C.444 6.54.175 7.7.096 9.404.016 11.111 0 11.654 0 16c0 4.347.02 4.89.096 6.596.08 1.703.348 2.864.744 3.884a7.847 7.847 0 0 0 1.845 2.835A7.825 7.825 0 0 0 5.52 31.16c1.021.395 2.181.665 3.884.744 1.707.08 2.25.096 6.596.096 4.347 0 4.89-.02 6.596-.096 1.703-.08 2.864-.35 3.884-.744a7.864 7.864 0 0 0 2.835-1.845 7.814 7.814 0 0 0 1.845-2.835c.395-1.02.665-2.181.744-3.884.08-1.707.096-2.25.096-6.596 0-4.347-.02-4.89-.096-6.596-.08-1.703-.35-2.865-.744-3.884a7.853 7.853 0 0 0-1.845-2.835A7.796 7.796 0 0 0 26.48.84C25.46.444 24.299.175 22.596.096 20.889.016 20.346 0 16 0Zm0 2.88c4.27 0 4.78.021 6.467.095 1.56.073 2.406.332 2.969.553.75.29 1.28.636 1.843 1.195.558.56.905 1.092 1.194 1.841.219.563.48 1.41.551 2.97.076 1.687.093 2.194.093 6.466s-.02 4.78-.098 6.467c-.082 1.56-.342 2.406-.562 2.969-.298.75-.638 1.28-1.198 1.843a4.992 4.992 0 0 1-1.84 1.194c-.56.219-1.42.48-2.98.551-1.699.076-2.199.093-6.479.093-4.281 0-4.781-.02-6.479-.098-1.561-.082-2.421-.342-2.981-.562-.759-.298-1.28-.638-1.839-1.198a4.859 4.859 0 0 1-1.2-1.84c-.22-.56-.478-1.42-.56-2.98-.06-1.68-.081-2.199-.081-6.459 0-4.261.021-4.781.081-6.481.082-1.56.34-2.419.56-2.979.28-.76.639-1.28 1.2-1.841C5.22 4.12 5.741 3.76 6.5 3.48 7.06 3.26 7.901 3 9.461 2.92c1.7-.06 2.2-.08 6.479-.08l.06.04Zm0 4.904A8.215 8.215 0 0 0 7.784 16c0 4.54 3.68 8.216 8.216 8.216 4.54 0 8.216-3.68 8.216-8.216 0-4.54-3.68-8.216-8.216-8.216Zm0 13.55A5.332 5.332 0 0 1 10.667 16 5.332 5.332 0 0 1 16 10.667 5.332 5.332 0 0 1 21.333 16 5.332 5.332 0 0 1 16 21.333ZM26.461 7.46c0 1.06-.861 1.92-1.92 1.92-1.06 0-1.92-.861-1.92-1.92a1.921 1.921 0 0 1 3.84 0Z" fill="url(#atb)"/></g><defs><linearGradient id="atb" x1="16" y1="0" x2="16" y2="32" gradientUnits="userSpaceOnUse"><stop stop-color="#FB0"/><stop offset="1" stop-color="#F2A60C"/></linearGradient><clipPath id="ata"><path fill="#fff" d="M0 0h32v32H0z"/></clipPath></defs></svg><svg fill="none" viewBox="0 0 20 20" id="contact--store--1" xmlns="http://www.w3.org/2000/svg"><path d="M10 1.667c-3.5 0-6.667 2.683-6.667 6.833 0 2.65 2.042 5.767 6.117 9.358a.848.848 0 0 0 1.108 0c4.067-3.591 6.109-6.708 6.109-9.358 0-4.15-3.167-6.833-6.667-6.833ZM10 10c-.917 0-1.667-.75-1.667-1.667S9.083 6.666 10 6.666s1.667.75 1.667 1.667S10.917 10 10 10Z" fill="url(#bja)"/><defs><linearGradient id="bja" x1="10" y1="1.667" x2="10" y2="18.064" gradientUnits="userSpaceOnUse"><stop stop-color="#FB0"/><stop offset="1" stop-color="#F2A60C"/></linearGradient></defs></svg><svg fill="none" viewBox="0 0 20 20" id="contact--store--2" xmlns="http://www.w3.org/2000/svg"><path d="M10 1.667c-4.583 0-8.333 3.75-8.333 8.333s3.75 8.333 8.333 8.333 8.333-3.75 8.333-8.333S14.583 1.667 10 1.667Zm2.958 11.5-3.4-2.092a.821.821 0 0 1-.4-.708V6.458a.642.642 0 0 1 .634-.625.63.63 0 0 1 .625.625v3.708l3.2 1.925c.3.184.4.575.216.876a.64.64 0 0 1-.875.2Z" fill="url(#bka)"/><defs><linearGradient id="bka" x1="10" y1="1.667" x2="10" y2="18.333" gradientUnits="userSpaceOnUse"><stop stop-color="#FB0"/><stop offset="1" stop-color="#F2A60C"/></linearGradient></defs></svg><svg fill="none" viewBox="0 0 32 32" id="contact--youtube" xmlns="http://www.w3.org/2000/svg"><path d="M31.33 8.248A4.021 4.021 0 0 0 28.502 5.4C26.007 4.727 16 4.727 16 4.727s-10.007 0-12.503.673A4.023 4.023 0 0 0 .67 8.248C0 10.76 0 16 0 16s0 5.24.67 7.752A4.02 4.02 0 0 0 3.498 26.6c2.494.673 12.501.673 12.501.673s10.007 0 12.503-.673a4.02 4.02 0 0 0 2.829-2.848C32 21.24 32 16 32 16s0-5.24-.67-7.752Zm-18.603 12.51v-9.515L21.09 16l-8.364 4.757Z" fill="url(#aua)"/><defs><linearGradient id="aua" x1="16" y1="4.727" x2="16" y2="27.273" gradientUnits="userSpaceOnUse"><stop stop-color="#FB0"/><stop offset="1" stop-color="#F2A60C"/></linearGradient></defs></svg><svg fill="none" viewBox="0 0 14 9" id="insurance--1" xmlns="http://www.w3.org/2000/svg"><path d="M1.483 4 5.49 8l7.013-7" stroke="#FB0" stroke-width="2" stroke-linecap="round" stroke-linejoin="round"/></svg><svg viewBox="0 0 148 36" fill="none" id="partners--1" xmlns="http://www.w3.org/2000/svg"><g clip-path="url(#awa)"><path d="M48.624 37.52V2h-8.976L20.88 29.408l-3.168-3.984c5.664-.864 8.832-5.856 8.832-11.184 0-5.088-2.784-9.36-6.528-10.992C18.144 2.432 15.36 2 11.664 2H0v35.52h8.688V26.048h.096l8.208 11.472h9.168l3.12-5.136h10.272v5.136h9.072ZM8.688 19.856V9.968h3.456c3.408 0 5.712 1.728 5.712 4.8 0 3.264-2.16 5.088-5.76 5.088H8.688Zm30.864 5.328H33.6l5.856-9.84h.096v9.84ZM85.03 37.52V2h-8.688l.384 22.464L62.902 2h-7.824v35.52h8.688l-.24-21.696L77.158 37.52h7.872Zm26.198 0v-7.968h-11.04v-6.096h10.704v-7.968h-10.704v-5.52h11.04V2H91.5v35.52h19.728Zm36.062 0-12.528-17.808L146.522 2h-9.504l-10.032 15.984h-.096V2h-9.072v35.52h9.072V22.16h.096l9.696 15.36h10.608Z" fill="#9C9C9C"/></g><defs><clipPath id="awa"><path fill="#fff" d="M0 0h148v36H0z"/></clipPath></defs></svg><svg viewBox="0 0 140 37" fill="none" id="partners--2" xmlns="http://www.w3.org/2000/svg"><path d="M11.394 22.737v5.086c0 2.543-1.12 3.46-2.9 3.46-1.78 0-2.899-.917-2.899-3.46V8.596c0-2.543 1.12-3.51 2.9-3.51 1.78 0 2.899.967 2.899 3.51v3.815h5.29V8.952C16.684 3.255 13.835 0 8.342 0 2.848 0 0 3.255 0 8.952v18.515c0 5.697 2.848 8.953 8.342 8.953 5.493 0 8.342-3.256 8.342-8.953v-4.73h-5.29ZM32.503.407 38.2 36.013h-5.646l-.967-6.46h-6.866l-.967 6.46h-5.137L24.314.407h8.189Zm-4.425 6.307-2.645 18.007h5.391L28.18 6.713h-.101l-.001.001ZM58.19 36.013h-5.697c-.305-.916-.509-1.476-.509-4.375v-5.595c0-3.306-1.119-4.527-3.662-4.527h-1.933v14.497h-5.595V.407h8.444c5.798 0 8.29 2.696 8.29 8.19v2.797c0 3.662-1.17 6.002-3.662 7.172 2.798 1.271 3.713 3.916 3.713 7.63v5.493c0 1.73.051 3.001.61 4.324h.001Zm-9.105-30.52h-2.696V16.43h2.187c2.086 0 3.357-.915 3.357-3.764v-3.51c0-2.543-.864-3.662-2.848-3.662v-.001ZM75.242.407l5.697 35.606h-5.646l-.966-6.46H67.46l-.966 6.46h-5.138L67.053.407h8.19-.001Zm-4.425 6.307-2.645 18.007h5.392L70.919 6.713h-.102v.001ZM86.115.407h-5.646l5.493 35.606h8.342L99.797.407H94.66L90.438 29.45h-.102L86.115.407Zm27.098 0 5.697 35.606h-5.646l-.966-6.46h-6.867l-.967 6.46h-5.137L105.024.407h8.189Zm-4.425 6.307-2.645 18.007h5.392L108.89 6.713h-.102v.001Zm25.464 29.299H140V.407h-4.985v21.312h-.102L129.267.407h-7.019v35.606h5.036v-25.79h.101l6.867 25.79Z" fill="#9C9C9C"/></svg><svg fill="none" viewBox="0 0 152 39" id="partners--3" xmlns="http://www.w3.org/2000/svg"><path fill-rule="evenodd" clip-rule="evenodd" d="M23.024 16.85h2.717c2.808 0 4.325 3.292 2.496 5.425l-2.66 3.1a7.392 7.392 0 0 0 2.719 4.655 7.409 7.409 0 0 0 10.021-.77 7.389 7.389 0 0 0 1.975-5.017 2.464 2.464 0 0 1 4.21-1.742c.462.462.722 1.088.723 1.742a12.31 12.31 0 0 1-6.664 10.937 12.349 12.349 0 0 1-15.537-3.546 12.347 12.347 0 0 1-19.873-.188 12.31 12.31 0 0 1-2.329-7.203 2.462 2.462 0 0 1 2.467-2.464 2.468 2.468 0 0 1 2.467 2.464 7.387 7.387 0 0 0 5.47 7.147 7.405 7.405 0 0 0 9.246-6.016l-2.662-3.1c-1.828-2.132-.312-5.423 2.5-5.423h2.714Z" fill="#9C9C9C"/><path d="M34.535 10.28a4.931 4.931 0 0 0 4.934-4.928A4.931 4.931 0 0 0 32.648.798a4.93 4.93 0 0 0-2.67 6.44 4.93 4.93 0 0 0 4.557 3.042Zm-23.023 0a4.93 4.93 0 0 0 4.557-6.815 4.929 4.929 0 0 0-4.557-3.04 4.93 4.93 0 0 0-4.558 6.814 4.93 4.93 0 0 0 4.558 3.041Zm67.933-8.652c.76 0 1.384.217 1.872.651.488.434.732 1.004.732 1.71v24.335c0 .733-.23 1.316-.692 1.75-.46.434-1.071.651-1.83.651-.76 0-1.37-.217-1.832-.65-.461-.435-.692-1.018-.692-1.75v-1.018c-.597 1.112-1.465 1.98-2.605 2.604-1.112.624-2.387.936-3.825.936-1.71 0-3.242-.434-4.598-1.302-1.33-.868-2.374-2.089-3.134-3.663-.733-1.6-1.1-3.43-1.1-5.493 0-2.062.367-3.866 1.1-5.413.76-1.546 1.804-2.74 3.134-3.58 1.329-.842 2.862-1.263 4.598-1.263 1.438 0 2.713.3 3.826.896a6.21 6.21 0 0 1 2.563 2.523V3.907c0-.678.217-1.22.65-1.628.463-.434 1.073-.65 1.833-.65ZM71.915 26.9c1.629 0 2.877-.556 3.745-1.669.895-1.112 1.343-2.7 1.343-4.76 0-2.063-.448-3.637-1.343-4.72-.868-1.114-2.102-1.67-3.703-1.67-1.628 0-2.89.542-3.785 1.628-.895 1.085-1.343 2.645-1.343 4.68 0 2.062.448 3.662 1.343 4.802.895 1.14 2.143 1.71 3.744 1.71Zm24.442 3.947c-2.034 0-3.825-.42-5.371-1.26-1.52-.842-2.7-2.049-3.541-3.623-.841-1.574-1.262-3.405-1.262-5.494s.42-3.907 1.262-5.453c.84-1.574 2.02-2.78 3.54-3.622 1.547-.84 3.338-1.262 5.372-1.262 2.035 0 3.812.42 5.331 1.262a8.446 8.446 0 0 1 3.541 3.622c.841 1.546 1.262 3.364 1.262 5.453 0 2.09-.421 3.92-1.262 5.494a8.448 8.448 0 0 1-3.541 3.622c-1.519.84-3.296 1.261-5.33 1.261h-.001Zm-.04-3.947c1.655 0 2.916-.543 3.784-1.628.869-1.085 1.303-2.686 1.303-4.802 0-2.089-.434-3.676-1.303-4.76-.868-1.114-2.116-1.67-3.744-1.67-1.627 0-2.89.556-3.784 1.67-.868 1.084-1.303 2.671-1.303 4.76 0 2.116.434 3.717 1.303 4.802.868 1.085 2.116 1.628 3.744 1.628Zm31.221-16.685c.76 0 1.37.217 1.831.65.462.435.692 1.018.692 1.75V28.69c0 3.12-.868 5.48-2.604 7.082-1.737 1.6-4.3 2.4-7.692 2.4-2.957 0-5.426-.555-7.406-1.668-1.004-.597-1.506-1.316-1.506-2.157 0-.597.136-1.07.407-1.424.298-.353.678-.53 1.139-.53.245 0 .543.055.896.164.352.135.719.285 1.098.447.85.362 1.719.674 2.605.936.787.217 1.682.326 2.686.326 3.554 0 5.331-1.736 5.331-5.21v-2.604c-.597 1.113-1.465 1.98-2.604 2.605-1.14.597-2.442.895-3.907.895-1.737 0-3.283-.407-4.64-1.22-1.329-.842-2.373-2.008-3.133-3.5-.76-1.493-1.14-3.215-1.14-5.169 0-1.953.367-3.676 1.099-5.168.76-1.52 1.818-2.686 3.174-3.5 1.357-.84 2.903-1.262 4.64-1.262 1.465 0 2.767.312 3.907.936a6.092 6.092 0 0 1 2.604 2.564v-1.058c0-.705.231-1.275.692-1.71.461-.433 1.072-.65 1.831-.65Zm-7.691 15.79c1.628 0 2.889-.53 3.784-1.587.923-1.059 1.384-2.51 1.384-4.355 0-1.872-.461-3.337-1.384-4.395-.895-1.058-2.156-1.587-3.784-1.587-1.601 0-2.863.53-3.785 1.587-.922 1.058-1.384 2.523-1.384 4.395 0 1.845.462 3.296 1.384 4.355.922 1.058 2.184 1.587 3.785 1.587Zm22.686 4.842c-2.957 0-5.344-.583-7.162-1.75-.868-.515-1.302-1.248-1.302-2.197 0-.543.149-.977.447-1.302.299-.353.665-.53 1.099-.53.461 0 1.099.218 1.913.652.868.407 1.655.72 2.36.936.733.217 1.655.325 2.767.325 1.14 0 2.022-.19 2.646-.57.651-.38.976-.908.976-1.587 0-.46-.135-.827-.407-1.098-.244-.272-.705-.516-1.383-.733-.652-.244-1.655-.515-3.012-.814-2.414-.488-4.151-1.18-5.209-2.075-1.031-.895-1.546-2.13-1.546-3.703 0-1.194.352-2.266 1.058-3.216.705-.976 1.668-1.722 2.889-2.238 1.248-.542 2.659-.814 4.232-.814 1.14 0 2.239.15 3.297.448a9.64 9.64 0 0 1 2.849 1.22c.868.543 1.302 1.262 1.302 2.158 0 .542-.149 1.004-.448 1.383-.298.353-.665.53-1.099.53-.298 0-.597-.055-.895-.163a25.86 25.86 0 0 1-1.058-.57c-.787-.407-1.465-.705-2.035-.895-.57-.217-1.275-.326-2.116-.326-1.004 0-1.804.204-2.401.61-.57.407-.855.964-.855 1.67 0 .677.299 1.193.896 1.545.597.353 1.75.706 3.459 1.06 1.818.38 3.242.812 4.273 1.301 1.031.488 1.763 1.1 2.197 1.831.462.733.692 1.67.692 2.808 0 1.845-.773 3.324-2.319 4.436-1.52 1.112-3.555 1.668-6.105 1.668Z" fill="#9C9C9C"/></svg><svg fill="none" viewBox="0 0 139 50" id="partners--4" xmlns="http://www.w3.org/2000/svg"><g clip-path="url(#aza)"><path d="M24.912 10.784 20.31 39.082h-6.612l1.68-10.218H8.256L6.61 39.082H0l4.639-28.298h6.575L9.242 22.732h7.122l1.974-11.948h6.575-.001Zm13.561 28.298.22-6.17h-6.1l-1.79 6.17h-6.977l9.388-28.298h12.053l.147 28.298H38.473Zm-1.497-21.42-2.885 9.983h4.785l.401-9.982h-2.301v-.001Zm36.807-6.878L69.18 39.082h-6.612l-4.601-15.484-2.484 15.485H48.87l4.639-28.299h6.794l4.53 14.464 2.373-14.464h6.577Zm15.425 0c3.19 0 5.467.865 6.83 2.594.999 1.31 1.497 2.948 1.497 4.913 0 .708-.06 1.454-.181 2.24l-1.425 8.765c-.487 2.96-1.681 5.332-3.58 7.114-1.9 1.782-4.359 2.672-7.38 2.672H74.34l4.64-28.298h10.228Zm-2.302 6.132h-2.374L81.939 32.95h3.47c1.144 0 2.033-.328 2.666-.982.658-.682 1.108-1.782 1.35-3.301l1.061-6.446c.092-.52.141-1.046.146-1.573 0-2.49-1.241-3.733-3.726-3.733v.001Zm30.206 22.166H98.775l4.641-28.298h18.337l-1.023 6.132h-11.762l-.84 5.306h9.716l-1.022 6.13h-9.717l-.73 4.599h11.762l-1.024 6.131h-.001Zm20.865 0H121.32l4.64-28.298h6.575l-3.616 22.167H139l-1.023 6.131Zm-64.506 5.036h63.543L135.029 50H71.486l1.985-5.882ZM6.95 0h69.5l-1.986 5.882h-69.5L6.95 0Z" fill="#9C9C9C"/></g><defs><clipPath id="aza"><path fill="#fff" d="M0 0h139v50H0z"/></clipPath></defs></svg><svg fill="none" viewBox="0 0 200 49" id="partners--5" xmlns="http://www.w3.org/2000/svg"><g clip-path="url(#baa)" fill="#9C9C9C"><path d="M54.381 44.466c-3.32 0-5.865-.568-7.636-1.704-1.74-1.168-2.609-2.873-2.609-5.114 0-1.136.38-2.068 1.138-2.794.791-.757 1.803-1.136 3.036-1.136.727.032 1.28.22 1.66.568.38.316.57.616.57.9 0 .031-.159.142-.475.331-.316.19-.6.474-.854.852-.253.38-.38.9-.38 1.563 0 1.484.444 2.636 1.329 3.457.917.789 2.324 1.183 4.221 1.183 1.297 0 2.435-.252 3.416-.757.98-.505 1.723-1.168 2.229-1.989.537-.852.806-1.736.806-2.652 0-1.136-.332-2.114-.996-2.935a7.804 7.804 0 0 0-2.371-2.036c-.95-.568-2.246-1.216-3.89-1.942-1.897-.852-3.43-1.625-4.6-2.32a9.897 9.897 0 0 1-2.99-2.746c-.821-1.168-1.232-2.604-1.232-4.309 0-2.746.932-4.798 2.798-6.155 1.898-1.358 4.38-2.036 7.447-2.036 2.403 0 4.49.505 6.261 1.515 1.803 1.01 2.704 2.494 2.704 4.45 0 1.137-.396 2.084-1.186 2.842-.759.726-1.755 1.089-2.988 1.089-.728-.032-1.281-.206-1.66-.521-.38-.347-.57-.663-.57-.947 0-.032.206-.142.617-.332a2.995 2.995 0 0 0 1.138-.852c.348-.379.522-.9.522-1.562 0-1.168-.458-2.084-1.375-2.747-.886-.663-2.024-.994-3.416-.994-1.928 0-3.399.458-4.41 1.373-.981.884-1.471 1.989-1.471 3.315 0 1.104.3 2.036.901 2.793.6.726 1.565 1.452 2.893 2.178A61.228 61.228 0 0 0 56.468 26c2.024.915 3.621 1.752 4.791 2.51a9.617 9.617 0 0 1 2.988 2.983c.822 1.23 1.234 2.762 1.234 4.592 0 1.579-.506 3.015-1.518 4.31-.98 1.262-2.325 2.256-4.032 2.982-1.676.726-3.526 1.09-5.55 1.09v-.001Zm24.013-.378c-2.15 0-3.858-.648-5.123-1.942-1.265-1.294-1.897-2.999-1.897-5.114v-8.76c0-.82-.032-1.42-.095-1.799-.031-.378-.221-.71-.57-.994-.347-.284-.932-.426-1.754-.426-.38 0-.664-.047-.854-.142-.19-.126-.284-.395-.284-.805 0-.19.063-.363.19-.52.126-.19.316-.3.569-.332 1.992-.285 3.7-.695 5.122-1.232.443-.157.806-.252 1.091-.284h.142c.506 0 .76.3.76.9v14.347c0 1.452.458 2.573 1.375 3.362a4.844 4.844 0 0 0 3.178 1.136c1.486 0 2.75-.363 3.794-1.089s1.74-1.452 2.087-2.178v-9.943c0-.821-.031-1.42-.094-1.8-.032-.378-.222-.71-.57-.994-.348-.284-.933-.426-1.755-.426-.38 0-.664-.047-.853-.142-.19-.126-.285-.395-.285-.805 0-.19.063-.363.19-.52.126-.19.316-.3.569-.332 1.992-.285 3.7-.695 5.123-1.232.442-.157.806-.252 1.09-.284h.143c.506 0 .759.3.759.9v16.384c0 1.863 1.249 2.794 3.747 2.794.537 0 .806.3.806.9 0 .441-.269.71-.806.804l-7.637.521c-.221 0-.348-.079-.38-.236-.03-.127-.047-.363-.047-.71v-2.653h-.094a57.466 57.466 0 0 1-2.23 1.988c-.569.442-1.312.821-2.23 1.137-.885.347-1.944.52-3.177.52v.001Zm19.196-.426a.72.72 0 0 1-.57-.285 1.167 1.167 0 0 1-.19-.662c.032-.41.127-.648.285-.71.159-.095.443-.143.854-.143.822 0 1.407-.142 1.755-.426.348-.284.538-.616.569-.994.064-.38.095-.979.095-1.8V27.799c0-.82-.031-1.42-.095-1.8-.031-.378-.221-.71-.569-.993-.348-.284-.933-.427-1.755-.427-.38 0-.664-.047-.853-.142-.19-.126-.285-.394-.285-.805 0-.189.063-.363.19-.52.126-.19.316-.3.569-.332 2.055-.316 3.747-.726 5.075-1.231.538-.158.901-.253 1.091-.284h.142c.506 0 .759.3.759.9V25.1h.142c1.107-1.105 2.23-1.973 3.368-2.604 1.139-.663 2.166-.994 3.083-.994 1.044 0 1.866.394 2.467 1.183.632.758.948 1.642.948 2.652a3.76 3.76 0 0 1-.806 2.367c-.538.695-1.281 1.042-2.229 1.042a2.441 2.441 0 0 1-1.186-.284c-.316-.19-.49-.347-.522-.473.032-.063.19-.253.474-.569.285-.347.427-.741.427-1.183 0-.569-.158-1.026-.474-1.373-.285-.348-.68-.521-1.186-.521-.537 0-1.217.268-2.039.805-.823.505-1.629 1.152-2.419 1.941v11.553c0 .821.031 1.42.094 1.8.064.378.269.71.617.994.348.284.933.426 1.755.426h.285c.253 0 .442.048.569.142.126.095.205.332.237.71 0 .253-.063.474-.19.663-.126.19-.316.285-.569.285a97.441 97.441 0 0 0-4.98-.143c-1.423 0-3.067.048-4.933.142v.001Zm73.667.426c-2.15 0-4.063-.506-5.739-1.516-1.676-1.041-2.988-2.399-3.937-4.072a11.238 11.238 0 0 1-1.375-5.398c0-2.367.553-4.419 1.66-6.155 1.107-1.768 2.514-3.11 4.221-4.025 1.708-.947 3.431-1.42 5.17-1.42 2.151 0 4.064.52 5.74 1.562a10.467 10.467 0 0 1 3.889 4.072 10.674 10.674 0 0 1 1.423 5.35c0 2.368-.569 4.436-1.707 6.204-1.107 1.736-2.514 3.077-4.222 4.024-1.707.916-3.415 1.374-5.123 1.374Zm0-1.752c2.151 0 3.716-.916 4.696-2.747 1.012-1.83 1.518-4.198 1.518-7.102 0-2.715-.522-4.924-1.565-6.63-1.012-1.735-2.562-2.603-4.649-2.603-2.181 0-3.762.9-4.743 2.699-.98 1.799-1.47 4.15-1.47 7.055 0 2.714.506 4.956 1.518 6.723 1.012 1.737 2.577 2.605 4.695 2.605Zm23.004 1.988c-1.55 0-2.878-.568-3.985-1.704-1.106-1.137-1.66-2.762-1.66-4.877V23.822l-2.751.095a.58.58 0 0 1-.474-.237 1.083 1.083 0 0 1-.19-.616c0-.284.048-.52.142-.71.127-.221.301-.347.522-.379 1.107-.22 1.961-.568 2.562-1.041.632-.506 1.091-1.042 1.375-1.61.285-.6.633-1.5 1.044-2.7.158-.41.506-.615 1.043-.615.221 0 .443.063.664.19.221.094.332.252.332.473l-.332 5.398 5.55-.332h.095c.411 0 .616.3.616.9 0 .347-.063.679-.19.994-.094.285-.221.427-.379.427l-5.312-.142v14.394c0 1.042.205 1.91.616 2.604.443.695 1.154 1.042 2.135 1.042.98 0 1.85-.174 2.608-.521.412-.158.664-.237.759-.237.222 0 .396.095.522.284.127.158.253.38.38.663.034.074.05.155.047.237 0 .126-.095.268-.285.426-.917.6-1.786.995-2.608 1.184-.791.22-1.74.331-2.846.331Zm-76.664-.947c.126.19.316.284.569.284a94.72 94.72 0 0 1 4.933-.142c2.119 0 4.095.048 5.929.142a.6.6 0 0 0 .522-.284c.126-.19.189-.41.189-.663-.031-.378-.11-.615-.237-.71-.095-.094-.284-.142-.569-.142h-.285c-1.043 0-1.786-.079-2.229-.237-.443-.157-.743-.442-.901-.852-.158-.442-.237-1.152-.237-2.13V23.915h5.028a.721.721 0 0 0 .569-.284c.158-.189.237-.41.237-.663-.032-.378-.127-.615-.285-.71-.126-.126-.332-.19-.616-.19h-4.933v-2.84c0-1.515.063-2.841.189-3.978a7.666 7.666 0 0 1 1.091-3.22c.601-.978 1.534-1.467 2.799-1.467.145 0 .286.008.422.025a8.012 8.012 0 0 1 .104-1.585 8.045 8.045 0 0 0-.194-.003c-2.783.063-4.949 1.12-6.498 3.173-1.518 2.02-2.277 4.656-2.277 7.907v1.989h-2.846c-.411 0-.696.047-.854.142-.158.063-.253.316-.284.757 0 .253.063.474.189.663.159.19.364.285.617.285h3.178v14.726c0 .853-.032 1.468-.095 1.847-.031.347-.221.663-.569.947-.348.284-.933.426-1.755.426-.411 0-.696.048-.854.142-.126.063-.205.3-.237.71 0 .253.063.474.19.663Z"/><path fill-rule="evenodd" clip-rule="evenodd" d="M142.952 11.866a5.275 5.275 0 0 1-1.546 3.72 5.26 5.26 0 0 1-3.724 1.54 5.266 5.266 0 0 1-5.27-5.26 5.258 5.258 0 0 1 1.545-3.723 5.273 5.273 0 0 1 8.995 3.723Zm-5.27 2.63a2.634 2.634 0 0 0 2.635-2.63 2.62 2.62 0 0 0-.772-1.862 2.642 2.642 0 0 0-1.863-.77 2.635 2.635 0 0 0-2.635 2.63 2.635 2.635 0 0 0 2.635 2.631Zm-2.31 4.918v25.37c0 .284.08.505.238.663.158.19.379.283.664.283.284 0 .521-.125.711-.377.19-.221.364-.553.522-.995.158-.442.3-.79.427-1.042h.237c2.055 1.546 4.49 2.32 7.304 2.32 1.898 0 3.684-.506 5.36-1.516 1.676-1.01 3.004-2.383 3.985-4.12 1.011-1.767 1.517-3.708 1.517-5.822 0-2.147-.442-4.056-1.328-5.73-.853-1.704-2.039-3.03-3.557-3.977-1.518-.948-3.21-1.42-5.075-1.42-1.139 0-2.293.236-3.463.71-1.138.442-2.166 1.12-3.083 2.036h-.142V19.5a7.981 7.981 0 0 1-4.317-.085Zm14.325 22.008c-1.17 1.736-2.72 2.605-4.648 2.605-1.012 0-1.913-.221-2.704-.663-.759-.442-1.376-.963-1.85-1.563-.443-.632-.711-1.2-.806-1.705v-12.5c1.359-1.453 3.035-2.178 5.028-2.178 2.245 0 3.936.884 5.075 2.652 1.138 1.735 1.707 3.834 1.707 6.297 0 2.936-.6 5.288-1.802 7.055ZM12.7 2.367a1.98 1.98 0 0 1 2.298 0c8.56 6.104 12.44 13.422 12.685 23.92.113 5.014-.37 9.604-1.841 13.569-1.51 3.968-4.193 7.633-8.143 10.728a1.98 1.98 0 0 1-1.76.34c-1.21-.346-1.416-1.779-2.09-2.67-.674.892-.878 2.323-2.09 2.67a1.98 1.98 0 0 1-1.759-.34c-3.95-3.096-6.634-6.76-8.143-10.729C.387 35.892-.097 31.301.016 26.288.26 15.788 4.14 8.47 12.7 2.367Zm4.426 43.696c2.472-2.27 3.962-4.745 5.014-7.593 1.325-3.48 1.707-7.325 1.592-12.09-.19-8.188-2.11-13.514-7.923-18.46v14.467c2.273.584 3.293 2.81 3.293 5.26 0 2.453-1.02 4.678-3.293 5.263v11.837s1.056.972 1.317 1.316Zm-6.588 0c-2.472-2.27-3.927-4.745-4.98-7.593-1.324-3.48-1.706-7.325-1.59-12.09.19-8.17 2.099-13.52 7.888-18.46v14.467c-2.273.584-3.294 2.81-3.294 5.26 0 2.453 1.02 4.678 3.294 5.263v11.837s-1.066.984-1.318 1.316Zm3.294-21.046a2.633 2.633 0 0 0-2.635 2.63 2.633 2.633 0 0 0 2.635 2.632 2.633 2.633 0 0 0 2.635-2.63c0-1.454-1.18-2.63-2.635-2.63v-.002Z"/></g><defs><clipPath id="baa"><path fill="#fff" d="M0 0h200v49H0z"/></clipPath></defs></svg><svg fill="none" viewBox="0 0 196 34" id="partners--6" xmlns="http://www.w3.org/2000/svg"><g clip-path="url(#bba)"><path d="M21.644 32.955a6.99 6.99 0 0 1-3.38-.769 6.869 6.869 0 0 1-2.574-2.29 11.634 11.634 0 0 1-7.47 3.06c-4.987 0-7.69-3.465-6.777-8.43.694-3.735 3.799-7.477 4.667-10.48-1.68-1.009-4.174-1.71-5.343.35L0 13.935c.612-2.258 2.091-3.76 4.228-3.76 2.137 0 3.717 1.25 5.754.1h1.625c-.867 4.497-3.059 8.095-4.228 14.393-.712 3.86.612 5.614 2.85 5.614a6.789 6.789 0 0 0 4.273-2.259 18.005 18.005 0 0 1-1.324-6.918c0-5.47 2.548-11.236 6.822-11.236 2.192 0 3.817 1.502 3.817 5.065 0 3.562-2.191 9.077-4.986 12.54.151.825.59 1.572 1.24 2.113.65.54 1.471.84 2.322.848 4.073 0 6.922-6.02 6.922-11.588s-2.447-5.317-2.237-7.197a1.79 1.79 0 0 1 .627-1.222c.364-.31.838-.465 1.318-.433 1.27 0 2.94 1.583 2.94 8.007 0 8.186-4.42 14.952-10.32 14.952h.001Zm-.922-20.26c-1.27 0-2.494 4.615-2.649 9.383a20.13 20.13 0 0 0 .055 3.06 23.759 23.759 0 0 0 3.415-10.284c-.009-1.62-.31-2.16-.822-2.16l.001.001Zm19.607 20.053a3.707 3.707 0 0 1-1.577-.18 3.661 3.661 0 0 1-1.35-.823 3.594 3.594 0 0 1-.868-1.309 3.548 3.548 0 0 1-.224-1.548c0-2.204 2.905-13.189 2.905-14.997 0-.854-.201-1.358-.968-1.358a4.446 4.446 0 0 0-2.293 1.106v-1.556a7.54 7.54 0 0 1 4.84-1.952 3.716 3.716 0 0 1 2.932 1.038c.382.372.678.822.866 1.32.187.496.263 1.027.22 1.555 0 2.204-2.903 13.144-2.903 14.943 0 .855.2 1.36.968 1.36a4.8 4.8 0 0 0 2.292-1.054v1.502a7.438 7.438 0 0 1-4.84 1.953ZM43.89 1c.398-.012.794.06 1.161.214.366.154.695.384.961.675a2.662 2.662 0 0 1 .682 2.17 3.437 3.437 0 0 1-1.121 2.158c-.63.564-1.44.884-2.285.901a2.776 2.776 0 0 1-2.122-.889 2.662 2.662 0 0 1-.682-2.17c.098-.832.497-1.6 1.121-2.158A3.536 3.536 0 0 1 43.89 1Zm11.306 27.035c-.255 1.358-.1 2.303.868 2.303a4.597 4.597 0 0 0 2.292-1.053l.091 1.511a7.54 7.54 0 0 1-4.84 1.953c-3.16 0-4.383-2.258-3.917-5.065l3.105-17.408c1.032-5.812.675-6.577-2.485-6.577l.201-1.403 9.525-1.242-4.84 26.98v.001Zm26.786-.046c-.256 1.36-.156 2.358.867 2.358a4.86 4.86 0 0 0 2.293-1.107v1.556a7.365 7.365 0 0 1-4.84 1.953 3.692 3.692 0 0 1-2.531-.766 3.588 3.588 0 0 1-1.342-2.248 8.29 8.29 0 0 1-2.877 2.371 8.42 8.42 0 0 1-3.643.886c-6.055 0-8.603-5.263-7.434-11.588 1.169-6.324 6.62-11.488 12.785-11.488a8.68 8.68 0 0 1 4.192.98l.155-.8c1.206-6.19.649-6.397-2.511-6.397l.155-1.403 9.57-1.242-4.84 26.936h.001Zm-6.567-15.806c-3.516 0-5.853 4.111-6.776 9.176-.968 5.317-.356 8.997 2.95 8.997 2.237 0 4.785-2.7 5.552-6.82L79.023 13.1a6.533 6.533 0 0 0-3.608-.918ZM98.073 33c-7.078 0-9.014-5.02-8.146-9.833l2.31-12.89c1.069-5.82.713-6.623-2.447-6.623l.2-1.403 9.553-1.197-1.936 10.931a8.61 8.61 0 0 1 5.343-2.06c6.164 0 9.059 5.164 7.945 11.488C109.781 27.737 104.11 33 98.073 33Zm3.306-20.69a4.923 4.923 0 0 0-2.845.973 4.804 4.804 0 0 0-1.721 2.435l-1.425 8.097c-.868 4.813.868 6.774 3.06 6.774 3.205 0 5.196-3.508 6.264-9.275.95-5.164.083-8.978-3.342-8.978l.009-.027Zm19.169 12.018c0 3.86 1.881 5.92 5.479 5.92 1.827 0 4.484-1.25 6.165-2.906l.712 1.601a13.172 13.172 0 0 1-4.267 2.968 13.325 13.325 0 0 1-5.103 1.098c-5.342 0-8.959-3.913-8.959-9.23 0-7.872 6.621-13.845 12.987-13.845 3.872 0 6.054 2.105 6.054 4.561-.045 3.814-3.716 8.097-13.068 9.833Zm6.566-12.09c-2.904 0-5.698 4.164-6.466 10.13 5.854-1.405 8.347-5.318 8.402-7.828-.009-1.403-.676-2.303-1.945-2.303h.009Zm27.279 20.511a3.693 3.693 0 0 1-2.531-.766 3.589 3.589 0 0 1-1.341-2.248 7.992 7.992 0 0 1-2.806 2.373 8.119 8.119 0 0 1-3.587.883c-5.954 0-8.502-5.262-7.306-11.587 1.196-6.324 6.557-11.48 12.74-11.48a9.755 9.755 0 0 1 3.817.757h5.808l-3.114 17.308c-.256 1.36-.155 2.358.868 2.358a4.86 4.86 0 0 0 2.292-1.107v1.556a7.366 7.366 0 0 1-4.84 1.953Zm-4.685-20.566c-3.416 0-5.808 4.111-6.722 9.176-.968 5.317-.301 8.997 2.74 8.997 2.338 0 4.84-2.807 5.553-6.82L153.16 13.1a5.967 5.967 0 0 0-3.443-.918h-.009Zm27.297 3.661c-1.379 0-1.736-1.052-2.137-2.159a2.466 2.466 0 0 0-.929-1.396 2.53 2.53 0 0 0-1.619-.493c-.754-.04-1.496.2-2.083.674a2.975 2.975 0 0 0-1.077 1.881c-.155 1.36.867 2.51 2.803 4.165l2.594 2.105a6.571 6.571 0 0 1 2.164 2.8c.449 1.11.582 2.32.384 3.498-.658 3.76-3.817 6.072-8.046 6.072-5.096 0-8.347-2.96-7.991-4.966a2.24 2.24 0 0 1 .763-1.358c.41-.35.933-.544 1.475-.549 1.324 0 1.826 1 2.237 2.303.264.75.771 1.392 1.443 1.828a3.695 3.695 0 0 0 2.274.583 3.22 3.22 0 0 0 2.184-.718 3.129 3.129 0 0 0 1.122-1.98c.201-1.8-.913-2.906-3.004-4.769l-2.548-2.204a6.299 6.299 0 0 1-2.028-2.607 6.209 6.209 0 0 1-.42-3.258c.457-2.41 2.74-5.398 7.991-5.398 4.073 0 6.621 2.258 6.393 4.066-.026.499-.24.969-.6 1.315-.36.348-.841.55-1.345.565Zm18.639-3.148h-4.941l-2.392 13.332c-.512 2.762-.101 4.013 1.424 4.013.813 0 2.091-.45 3.918-2.303l.1 1.952a8.88 8.88 0 0 1-3.015 2.28 9.004 9.004 0 0 1-3.706.832c-3.461 0-5.196-2.41-4.374-6.873l2.392-13.233h-3.863l.302-2.06h3.899l1.023-5.965h5.699l-1.069 5.964h4.941l-.338 2.06v.001Z" fill="#9C9C9C"/></g><defs><clipPath id="bba"><path fill="#fff" d="M0 0h196v34H0z"/></clipPath></defs></svg><svg fill="none" viewBox="0 0 164 38" id="partners--7" xmlns="http://www.w3.org/2000/svg"><g clip-path="url(#bca)"><path d="M2.688 30.072c-.812 0-1.47-.252-1.974-.756C.238 28.812 0 28.154 0 27.342V2.772C0 1.96.224 1.33.672.882 1.148.434 1.792.21 2.604.21h14.742c1.708 0 2.562.728 2.562 2.184 0 1.428-.854 2.142-2.562 2.142H5.334V12.6h11.172c1.708 0 2.562.728 2.562 2.184 0 1.428-.854 2.142-2.562 2.142H5.334v10.416c0 .812-.238 1.47-.714 1.974s-1.12.756-1.932.756Zm24.925 0c-.756 0-1.386-.21-1.89-.63-.476-.448-.714-1.078-.714-1.89V2.478c0-.812.238-1.428.714-1.848.504-.42 1.134-.63 1.89-.63s1.386.21 1.89.63c.504.42.756 1.036.756 1.848v25.074c0 .812-.252 1.442-.756 1.89-.504.42-1.134.63-1.89.63Zm24.314-5.88c.476 0 .854.182 1.134.546.308.364.462.854.462 1.47 0 .868-.518 1.596-1.554 2.184-.952.532-2.03.966-3.234 1.302-1.204.308-2.352.462-3.444.462-3.304 0-5.922-.952-7.854-2.856-1.932-1.904-2.898-4.508-2.898-7.812 0-2.1.42-3.962 1.26-5.586.84-1.624 2.016-2.884 3.528-3.78 1.54-.896 3.276-1.344 5.208-1.344 1.848 0 3.458.406 4.83 1.218 1.372.812 2.436 1.96 3.192 3.444.756 1.484 1.134 3.234 1.134 5.25 0 1.204-.532 1.806-1.596 1.806h-12.39c.168 1.932.714 3.36 1.638 4.284.924.896 2.268 1.344 4.032 1.344.896 0 1.68-.112 2.352-.336.7-.224 1.484-.532 2.352-.924.84-.448 1.456-.672 1.848-.672ZM44.66 12.474c-1.428 0-2.576.448-3.444 1.344-.84.896-1.344 2.184-1.512 3.864h9.492c-.056-1.708-.476-2.996-1.26-3.864-.784-.896-1.876-1.344-3.276-1.344Zm30.723 13.482c.504.504.756 1.078.756 1.722 0 .616-.238 1.176-.714 1.68-.476.476-1.036.714-1.68.714-.7 0-1.302-.294-1.806-.882l-5.922-6.552-5.922 6.552c-.532.56-1.134.84-1.806.84-.616 0-1.162-.238-1.638-.714s-.714-1.022-.714-1.638c0-.644.252-1.218.756-1.722l6.132-6.678-5.796-6.3c-.504-.504-.756-1.078-.756-1.722 0-.644.238-1.19.714-1.638.476-.476 1.022-.714 1.638-.714.672 0 1.274.28 1.806.84l5.586 6.132 5.586-6.132c.532-.56 1.134-.84 1.806-.84.644 0 1.19.238 1.638.714.476.448.714.994.714 1.638 0 .644-.252 1.218-.756 1.722l-5.796 6.3 6.174 6.678Zm23.236-11.424c1.708.476 3.024 1.344 3.948 2.604.952 1.26 1.428 2.8 1.428 4.62 0 2.52-.91 4.494-2.73 5.922-1.792 1.428-4.27 2.142-7.434 2.142H82.995c-.812 0-1.456-.224-1.932-.672-.448-.448-.672-1.078-.672-1.89V2.772c0-.812.224-1.442.672-1.89.476-.448 1.12-.672 1.932-.672H93.41c3.08 0 5.488.686 7.224 2.058 1.764 1.344 2.646 3.234 2.646 5.67 0 1.568-.42 2.926-1.26 4.074-.812 1.148-1.946 1.988-3.402 2.52h.001Zm-12.936-1.848h6.846c3.724 0 5.586-1.386 5.586-4.158 0-1.4-.462-2.436-1.386-3.108-.924-.672-2.324-1.008-4.2-1.008h-6.846v8.274Zm7.56 12.936c1.96 0 3.388-.35 4.284-1.05.896-.7 1.344-1.792 1.344-3.276 0-1.484-.462-2.59-1.386-3.318-.896-.728-2.31-1.092-4.242-1.092h-7.56v8.736h7.56Zm17.96 4.452c-.756 0-1.386-.21-1.89-.63-.476-.448-.714-1.078-.714-1.89V2.478c0-.812.238-1.428.714-1.848.504-.42 1.134-.63 1.89-.63s1.386.21 1.89.63c.504.42.756 1.036.756 1.848v25.074c0 .812-.252 1.442-.756 1.89-.504.42-1.134.63-1.89.63Zm17.426.084c-2.1 0-3.948-.434-5.544-1.302-1.568-.868-2.786-2.114-3.654-3.738-.868-1.624-1.302-3.514-1.302-5.67s.434-4.032 1.302-5.628c.868-1.624 2.086-2.87 3.654-3.738 1.596-.868 3.444-1.302 5.544-1.302 2.1 0 3.934.434 5.502 1.302a8.717 8.717 0 0 1 3.654 3.738c.868 1.596 1.302 3.472 1.302 5.628s-.434 4.046-1.302 5.67a8.717 8.717 0 0 1-3.654 3.738c-1.568.868-3.402 1.302-5.502 1.302Zm-.042-4.074c1.708 0 3.01-.56 3.906-1.68.896-1.12 1.344-2.772 1.344-4.956 0-2.156-.448-3.794-1.344-4.914-.896-1.148-2.184-1.722-3.864-1.722-1.68 0-2.982.574-3.906 1.722-.896 1.12-1.344 2.758-1.344 4.914 0 2.184.448 3.836 1.344 4.956.896 1.12 2.184 1.68 3.864 1.68Zm32.222-17.22c.784 0 1.414.224 1.89.672.476.448.714 1.05.714 1.806v16.59c0 3.22-.896 5.656-2.688 7.308-1.792 1.652-4.438 2.478-7.938 2.478-3.052 0-5.6-.574-7.644-1.722-1.036-.616-1.554-1.358-1.554-2.226 0-.616.14-1.106.42-1.47.308-.364.7-.546 1.176-.546.252 0 .56.056.924.168.364.14.742.294 1.134.462 1.008.42 1.904.742 2.688.966.812.224 1.736.336 2.772.336 3.668 0 5.502-1.792 5.502-5.376V25.62c-.616 1.148-1.512 2.044-2.688 2.688-1.176.616-2.52.924-4.032.924-1.792 0-3.388-.42-4.788-1.26-1.372-.868-2.45-2.072-3.234-3.612-.784-1.54-1.176-3.318-1.176-5.334 0-2.016.378-3.794 1.134-5.334.784-1.568 1.876-2.772 3.276-3.612 1.4-.868 2.996-1.302 4.788-1.302 1.512 0 2.856.322 4.032.966a6.286 6.286 0 0 1 2.688 2.646v-1.092c0-.728.238-1.316.714-1.764.476-.448 1.106-.672 1.89-.672Zm-7.938 16.296c1.68 0 2.982-.546 3.906-1.638.952-1.092 1.428-2.59 1.428-4.494 0-1.932-.476-3.444-1.428-4.536-.924-1.092-2.226-1.638-3.906-1.638-1.652 0-2.954.546-3.906 1.638-.952 1.092-1.428 2.604-1.428 4.536 0 1.904.476 3.402 1.428 4.494.952 1.092 2.254 1.638 3.906 1.638Z" fill="#9C9C9C"/></g><defs><clipPath id="bca"><path fill="#fff" d="M0 0h164v38H0z"/></clipPath></defs></svg><svg fill="none" viewBox="0 0 208 41" id="partners--8" xmlns="http://www.w3.org/2000/svg"><g clip-path="url(#bda)"><path fill-rule="evenodd" clip-rule="evenodd" d="M13.935 36.123a.87.87 0 0 1-.685-.344 2.436 2.436 0 0 1-.45-1.03 13.958 13.958 0 0 1-.25-1.44c-.07-.622-.105-1.249-.106-1.876-.02-1.378-.016-2.756.014-4.134.018-.846.026-1.506.026-1.982V9.565c0-.776.005-1.366.014-1.771.009-.405.04-.863.091-1.374.03-.38.096-.756.199-1.123.1-.283.233-.553.395-.806.15-.265.368-.484.633-.634.308-.154.625-.29.949-.41a6.32 6.32 0 0 1 1.291-.33c.574-.084 1.15-.155 1.728-.212V1.45l-.45-.45H1.412l-.422.45v1.242c2.672.159 4.166.917 4.482 2.273a20.91 20.91 0 0 1 .264 3.462v24.127a24.227 24.227 0 0 1-.159 3.753 1.73 1.73 0 0 1-.316.528 9.886 9.886 0 0 1-.645.7c-.18.173-.35.354-.514.542v.925c13.587 0 21.997.088 25.23.265l1.135-3.832-.712-.503c-5.25.66-10.53 1.058-15.819 1.19h-.001Zm25.256-11.046a.73.73 0 0 1-.158.026c-.263 0-.395-.096-.395-.29.001-.876.067-1.751.198-2.617.148-.944.395-1.87.738-2.761a10.49 10.49 0 0 1 1.347-2.537 6.33 6.33 0 0 1 5.128-2.524 4.137 4.137 0 0 1 3.664 1.824 7.255 7.255 0 0 1 1.24 4.175 1.339 1.339 0 0 1-.884 1.242 43.072 43.072 0 0 1-4.416 1.507c-2.107.62-4.207 1.263-6.3 1.93a.74.74 0 0 0-.162.025Zm15.66 8.245c-3.165 1.92-5.898 2.88-8.198 2.88a7.496 7.496 0 0 1-4.377-1.295 7.837 7.837 0 0 1-2.755-3.237 9.994 9.994 0 0 1-.883-4.188c11.495-3.576 17.295-5.365 17.4-5.365a1.948 1.948 0 0 0 1.555-2.008 7.538 7.538 0 0 0-.883-3.726 6.445 6.445 0 0 0-2.386-2.471 11.554 11.554 0 0 0-3.256-1.295 16.624 16.624 0 0 0-3.785-.41 15.96 15.96 0 0 0-6.642 1.335 12.734 12.734 0 0 0-4.758 3.568 16.223 16.223 0 0 0-2.755 5.02 17.956 17.956 0 0 0-.95 5.828c0 4.07 1.1 7.118 3.296 9.144 1.986 1.85 4.79 2.774 8.41 2.774a13.573 13.573 0 0 0 5.972-1.453 46.087 46.087 0 0 0 6.393-3.86l-.577-1.028-.82-.213h-.001ZM90.36 5.457a7.717 7.717 0 0 0-3.876-4.202 16.364 16.364 0 0 0-6.986-1.268 20.517 20.517 0 0 0-5.18.634 15.765 15.765 0 0 0-4.456 1.903 9.155 9.155 0 0 0-3.203 3.45 10.305 10.305 0 0 0-1.187 5.007c0 1.247.302 2.476.883 3.58a10.004 10.004 0 0 0 2.215 2.895 26.924 26.924 0 0 0 3.11 2.365 36.23 36.23 0 0 0 3.402 2.008c1.1.565 2.181 1.165 3.243 1.798.88.498 1.706 1.087 2.465 1.757 1.95 1.815 2.926 3.54 2.926 5.18a6.372 6.372 0 0 1-2.03 4.637 6.672 6.672 0 0 1-4.877 2.022 6.96 6.96 0 0 1-5.576-2.537 8.705 8.705 0 0 1-2.148-5.79l-1.027-.37-5.246 5.894a12.282 12.282 0 0 0 4.72 4.057 13.845 13.845 0 0 0 6.195 1.415 19.606 19.606 0 0 0 5.774-.9 21.309 21.309 0 0 0 5.326-2.445 12.874 12.874 0 0 0 3.914-3.91 9.172 9.172 0 0 0 1.516-5.035 7.807 7.807 0 0 0-.5-2.814 9.001 9.001 0 0 0-1.292-2.326 11.544 11.544 0 0 0-2.202-2.074 28.166 28.166 0 0 0-2.808-1.865 96.238 96.238 0 0 0-3.532-1.916c-.83-.402-1.648-.83-2.452-1.282-.76-.445-1.5-.923-2.218-1.434a11.112 11.112 0 0 1-2.002-1.76 8.147 8.147 0 0 1-1.266-2.062 6.28 6.28 0 0 1-.527-2.55 5.367 5.367 0 0 1 1.54-3.885 5.432 5.432 0 0 1 4.073-1.585 6.318 6.318 0 0 1 4.97 2.087 9.244 9.244 0 0 1 2.254 5.048l.923.29 5.142-4.017Zm25.638 10.135a5.335 5.335 0 0 0-1.977-1.982 9.526 9.526 0 0 0-2.61-1.017 13.378 13.378 0 0 0-2.992-.317c-1.919-.027-3.827.3-5.629.965a12.226 12.226 0 0 0-4.165 2.55 13.832 13.832 0 0 0-2.742 3.738 17.76 17.76 0 0 0-1.569 4.427 23.088 23.088 0 0 0-.474 4.73c-.006 1.35.185 2.694.566 3.988.37 1.253.945 2.436 1.7 3.502a7.845 7.845 0 0 0 3.099 2.537 10.38 10.38 0 0 0 4.521.938c4.939 0 9.579-2.176 13.92-6.527l-.527-.767-.659-.158c-3.216 2.484-6.187 3.726-8.911 3.726a6.304 6.304 0 0 1-2.939-.674 5.928 5.928 0 0 1-2.099-1.743 10.563 10.563 0 0 1-1.332-2.458 13.181 13.181 0 0 1-.751-2.708c-.14-.874-.21-1.758-.211-2.643a20.85 20.85 0 0 1 .29-3.356c.207-1.235.516-2.45.923-3.634a7.597 7.597 0 0 1 1.872-3.066 4.041 4.041 0 0 1 2.9-1.202 3.878 3.878 0 0 1 3.585 1.956 9.276 9.276 0 0 1 1.16 4.81l.923.37 4.983-2.96a6.701 6.701 0 0 0-.855-3.025Zm9.663 7.862c.134-1.038.368-2.06.699-3.052.303-.965.733-1.884 1.278-2.735a6.11 6.11 0 0 1 2.044-1.916 5.628 5.628 0 0 1 2.913-.753 5.818 5.818 0 0 1 3.15.832 5.495 5.495 0 0 1 2.043 2.273c.477.967.822 1.993 1.027 3.052.217 1.14.324 2.3.317 3.462 0 1.057-.009 1.938-.027 2.642a32.146 32.146 0 0 1-.184 2.538 15.27 15.27 0 0 1-.435 2.457c-.207.71-.476 1.4-.804 2.062a5.178 5.178 0 0 1-1.279 1.717 6.324 6.324 0 0 1-1.872 1.057 7.254 7.254 0 0 1-2.57.423 4.677 4.677 0 0 1-2.703-.82 6.06 6.06 0 0 1-1.884-2.021 12.474 12.474 0 0 1-1.134-2.761 18.328 18.328 0 0 1-.607-2.895 21.955 21.955 0 0 1-.158-2.55 24.262 24.262 0 0 1 .186-3.012Zm-3.269 13.663c1.915 1.744 4.956 2.616 9.122 2.616 1.54.01 3.076-.167 4.574-.53a13.499 13.499 0 0 0 3.978-1.703 11.784 11.784 0 0 0 3.177-2.947 13.762 13.762 0 0 0 2.083-4.387 20.91 20.91 0 0 0 .765-5.866 11.003 11.003 0 0 0-3.612-8.51c-2.198-1.972-5.388-2.96-9.57-2.96-4.183 0-7.628 1.296-10.335 3.886a12.973 12.973 0 0 0-4.06 9.804c0 4.722 1.291 8.254 3.875 10.597h.003Zm41.258-20.93c1.406 0 2.408.282 3.006.846.557.68.909 1.506 1.014 2.38.221 1.03.358 2.078.409 3.13.035.926.053 2.12.053 3.582a450.47 450.47 0 0 1-.039 5.695c-.009.572-.005 1.246.012 2.022.005.578.04 1.156.106 1.73.053.38.123.794.211 1.242.061.376.186.737.369 1.07.158.265.352.506.578.715a4.083 4.083 0 0 0 2.899 1.056c1.319 0 2.83-.67 4.535-2.008a49.653 49.653 0 0 0 4.06-3.78l-.606-.9h-.633a6.428 6.428 0 0 1-3.611 1.4 2.065 2.065 0 0 1-1.53-.554 2.052 2.052 0 0 1-.462-.514 3.798 3.798 0 0 1-.276-1.084 15.327 15.327 0 0 1-.132-2.286c0-.581.031-1.52.092-2.814.049-.92.08-1.84.093-2.762v-1.586c.017-1.71.013-2.893-.013-3.555a25.134 25.134 0 0 0-.304-2.695 4.911 4.911 0 0 0-.817-2.352 5.485 5.485 0 0 0-1.635-1.215 5.733 5.733 0 0 0-2.689-.57c-3.093 0-6.679 1.27-10.756 3.807l-.633-.238a5.015 5.015 0 0 0-.909-2.708c-.519-.68-1.411-1.018-2.676-1.018a7.2 7.2 0 0 0-2.228.383c-.835.28-1.632.662-2.374 1.136-.8.503-1.494.97-2.083 1.4-.589.432-1.27.956-2.043 1.573l.975 1.295c.179-.116.36-.23.541-.343.307-.194.575-.352.804-.476.228-.123.501-.268.817-.436.283-.154.579-.283.884-.386.233-.08.477-.125.724-.132.305-.007.606.07.87.225.268.177.47.437.578.74.132.32.246.645.342.977.108.447.17.903.185 1.362.036.6.057 1.084.064 1.453.008.369.012.924.013 1.665v.45c0 1.726-.132 7.01-.395 15.855l.659.37 5.932-1.718c-.176-.757-.308-3.144-.396-7.16-.087-3.928-.13-7.858-.128-11.787 3.058-1.656 5.237-2.484 6.538-2.484l.005.002Zm25.573 9.01a.698.698 0 0 1-.158.028c-.263 0-.395-.097-.396-.29.001-.877.067-1.751.199-2.617a13.6 13.6 0 0 1 .737-2.762c.331-.903.783-1.757 1.345-2.537a6.33 6.33 0 0 1 5.128-2.524 4.135 4.135 0 0 1 3.664 1.824 7.247 7.247 0 0 1 1.239 4.175 1.34 1.34 0 0 1-.883 1.242 43.15 43.15 0 0 1-4.415 1.507c-2.107.62-4.208 1.263-6.301 1.93a.79.79 0 0 0-.158.025h-.001v-.001Zm15.66 8.246c-3.165 1.92-5.898 2.88-8.199 2.88a7.504 7.504 0 0 1-4.377-1.294 7.833 7.833 0 0 1-2.754-3.237 10.001 10.001 0 0 1-.884-4.19c11.495-3.575 17.295-5.363 17.401-5.363a1.95 1.95 0 0 0 1.555-2.009 7.543 7.543 0 0 0-.883-3.726 6.445 6.445 0 0 0-2.386-2.471 11.564 11.564 0 0 0-3.256-1.295 16.617 16.617 0 0 0-3.786-.41 15.958 15.958 0 0 0-6.64 1.335 12.734 12.734 0 0 0-4.758 3.568 16.208 16.208 0 0 0-2.755 5.02 17.928 17.928 0 0 0-.949 5.828c0 4.07 1.098 7.117 3.295 9.144 1.986 1.85 4.789 2.774 8.41 2.774a13.572 13.572 0 0 0 5.972-1.453 46.176 46.176 0 0 0 6.393-3.86l-.577-1.028-.822-.213Z" fill="#9C9C9C"/></g><defs><clipPath id="bda"><path fill="#fff" d="M0 0h208v41H0z"/></clipPath></defs></svg><svg fill="none" viewBox="0 0 32 32" id="social--facebook" xmlns="http://www.w3.org/2000/svg"><g clip-path="url(#bea)"><path d="M32 16.098c0-8.836-7.164-16-16-16s-16 7.164-16 16c0 7.986 5.85 14.605 13.5 15.805v-11.18H9.437v-4.627H13.5v-3.522c0-4.01 2.39-6.226 6.044-6.226 1.75 0 3.581.314 3.581.314v3.937h-2.018c-1.988 0-2.608 1.233-2.608 2.499v3h4.437l-.71 4.626H18.5v11.18C26.149 30.703 32 24.083 32 16.098Z" fill="#fff"/></g><defs><clipPath id="bea"><path fill="#fff" d="M0 0h32v32H0z"/></clipPath></defs></svg><svg fill="none" viewBox="0 0 32 32" id="social--instagram" xmlns="http://www.w3.org/2000/svg"><g clip-path="url(#bfa)"><path d="M16 0c-4.347 0-4.89.02-6.596.096C7.7.176 6.54.444 5.52.84a7.835 7.835 0 0 0-2.835 1.845A7.807 7.807 0 0 0 .84 5.52C.444 6.54.175 7.7.096 9.404.016 11.111 0 11.654 0 16c0 4.347.02 4.89.096 6.596.08 1.703.348 2.864.744 3.884a7.847 7.847 0 0 0 1.845 2.835A7.825 7.825 0 0 0 5.52 31.16c1.021.395 2.181.665 3.884.744 1.707.08 2.25.096 6.596.096 4.347 0 4.89-.02 6.596-.096 1.703-.08 2.864-.35 3.884-.744a7.864 7.864 0 0 0 2.835-1.845 7.814 7.814 0 0 0 1.845-2.835c.395-1.02.665-2.181.744-3.884.08-1.707.096-2.25.096-6.596 0-4.347-.02-4.89-.096-6.596-.08-1.703-.35-2.865-.744-3.884a7.853 7.853 0 0 0-1.845-2.835A7.796 7.796 0 0 0 26.48.84C25.46.444 24.299.175 22.596.096 20.889.016 20.346 0 16 0Zm0 2.88c4.27 0 4.78.021 6.467.095 1.56.073 2.406.332 2.969.553.75.29 1.28.636 1.843 1.195.558.56.905 1.092 1.194 1.841.219.563.48 1.41.551 2.97.076 1.687.093 2.194.093 6.466s-.02 4.78-.098 6.467c-.082 1.56-.342 2.406-.562 2.969-.298.75-.638 1.28-1.198 1.843a4.992 4.992 0 0 1-1.84 1.194c-.56.219-1.42.48-2.98.551-1.699.076-2.199.093-6.479.093-4.281 0-4.781-.02-6.479-.098-1.561-.082-2.421-.342-2.981-.562-.759-.298-1.28-.638-1.839-1.198a4.859 4.859 0 0 1-1.2-1.84c-.22-.56-.478-1.42-.56-2.98-.06-1.68-.081-2.199-.081-6.459 0-4.261.021-4.781.081-6.481.082-1.56.34-2.419.56-2.979.28-.76.639-1.28 1.2-1.841C5.22 4.12 5.741 3.76 6.5 3.48 7.06 3.26 7.901 3 9.461 2.92c1.7-.06 2.2-.08 6.479-.08l.06.04Zm0 4.904A8.215 8.215 0 0 0 7.784 16c0 4.54 3.68 8.216 8.216 8.216 4.54 0 8.216-3.68 8.216-8.216 0-4.54-3.68-8.216-8.216-8.216Zm0 13.55A5.332 5.332 0 0 1 10.667 16 5.332 5.332 0 0 1 16 10.667 5.332 5.332 0 0 1 21.333 16 5.332 5.332 0 0 1 16 21.333ZM26.461 7.46c0 1.06-.861 1.92-1.92 1.92-1.06 0-1.92-.861-1.92-1.92a1.921 1.921 0 0 1 3.84 0Z" fill="#fff"/></g><defs><clipPath id="bfa"><path fill="#fff" d="M0 0h32v32H0z"/></clipPath></defs></svg><svg fill="none" viewBox="0 0 32 32" id="social--youtube" xmlns="http://www.w3.org/2000/svg"><path d="M31.33 8.248A4.021 4.021 0 0 0 28.502 5.4C26.007 4.727 16 4.727 16 4.727s-10.007 0-12.503.673A4.023 4.023 0 0 0 .67 8.248C0 10.76 0 16 0 16s0 5.24.67 7.752A4.02 4.02 0 0 0 3.498 26.6c2.494.673 12.501.673 12.501.673s10.007 0 12.503-.673a4.02 4.02 0 0 0 2.829-2.848C32 21.24 32 16 32 16s0-5.24-.67-7.752Zm-18.603 12.51v-9.515L21.09 16l-8.364 4.757Z" fill="#fff"/></svg><svg fill="none" viewBox="0 0 41 35" id="testimonial--1" xmlns="http://www.w3.org/2000/svg"><path d="M29.029 35c-2.656-.691-4.634-2.218-5.934-4.58-1.3-2.42-1.95-5.272-1.95-8.556 0-5.185 1.64-9.65 4.917-13.395C29.396 4.667 33.267 1.844 37.675 0l2.712 4.494-.084.864c-2.204.807-4.154 2.535-5.85 5.185-1.695 2.65-2.542 5.416-2.542 8.297 0 1.843.367 3.37 1.102 4.58.734 1.152 1.752 1.786 3.051 1.901l-.254 1.728L29.029 35ZM8.346 35c-2.656-.691-4.634-2.218-5.934-4.58-1.3-2.42-1.95-5.272-1.95-8.556 0-5.185 1.64-9.65 4.917-13.395C8.713 4.667 12.584 1.844 16.992 0l2.712 4.494-.084.864c-2.204.807-4.154 2.535-5.85 5.185-1.695 2.65-2.542 5.416-2.542 8.297 0 1.843.367 3.37 1.102 4.58.734 1.152 1.752 1.786 3.051 1.901l-.254 1.728L8.346 35Z" fill="#E4A30B"/></svg><svg fill="none" viewBox="0 0 41 35" id="testimonial--2" xmlns="http://www.w3.org/2000/svg"><path d="M32.471 0c2.662.691 4.644 2.247 5.947 4.667 1.302 2.362 1.953 5.185 1.953 8.469 0 5.185-1.67 9.679-5.012 13.481-3.284 3.745-7.135 6.54-11.552 8.383l-2.719-4.494.085-.864c2.209-.807 4.163-2.535 5.862-5.185 1.699-2.65 2.548-5.416 2.548-8.297 0-1.843-.368-3.341-1.104-4.493-.736-1.21-1.756-1.873-3.058-1.988l.255-1.728L32.47 0ZM11.83 0c2.662.691 4.644 2.247 5.946 4.667 1.303 2.362 1.954 5.185 1.954 8.469 0 5.185-1.67 9.679-5.012 13.481-3.284 3.745-7.135 6.54-11.552 8.383L.446 30.506l.085-.864c2.209-.807 4.163-2.535 5.862-5.185 1.699-2.65 2.548-5.416 2.548-8.297 0-1.843-.368-3.341-1.104-4.493-.737-1.21-1.756-1.873-3.058-1.988l.254-1.728L11.83 0Z" fill="#E4A30B"/></svg></svg>